<svg height="804.05029" viewBox="0 0 1065.202 804.05029" width="1065.202" xmlns="http://www.w3.org/2000/svg">
	<g transform="translate(-483.94345 -610.68444)">
		<path
			d="m1335 810.4c-3 1.4-5.8 3.1-9.9 6-13.1 9.2-21.7 18.9-24.8 22.6-9.7 11.5-16.1 23.1-20.3 32.7.8-3 1.9-8.4.5-14.8-.9-3.9-2.1-9.6-6-11-5.3-2-12.2 5.3-14.9 8.2-4.3 4.5-6.5 9.1-8.2 12.8-3.9 8.8-10.5 24.1-8.9 43.9.9 11.4 3.6 13.1 4.9 13.5 3.8 1.4 8.8-3.2 9.4-3.8 1.7-1.6 2.6-3.2 6.4-13 2.4-6.1 2.6-7.4 4.1-10.7 2.4-5.4 4.9-9.5 6.6-12-3.1 9.4-8 28.7-2.6 51.6 3.2 13.4 6.9 29 18.5 36.5 1.1.7 8.1 5.1 15.8 12.5 4.8 4.6 6.1 6.7 6.8 8.9 1.4 4.6-.6 6.9-3.2 16.7-4.7 17.8-1.5 22.4-.4 23.6.6.6 1.1.9 1.5 1 4.4 1 10.3-10.9 11.3-12.8.6 3.5.6 6.4.5 8.3-.3 4-1.1 6-.3 9.4.3 1.2 1.1 4.4 2.8 4.6 1.3.2 2.4-1.3 2.8-1.8 1.8-4.3 3.6-8.5 5.4-12.8.8 1.9 2.2 4.6 4.3 7.7 2 2.9 3 4.4 4 4.2 1.8-.4 2.5-7.6 1.9-13.9-.7-8.3-4-20-6.4-29.9-.3-1-.7-3.2.4-4.6 1.3-1.7 4.1-1.5 6.2-1.3 6.9.4 13.8-.1 20.7.3 7.3.4 8.2.4 9.7 1.3 3.3 1.7 4.9 5 8 11.3 7.1 14.5 7.7 15.9 9.6 18.8 3.5 5.2 7 8.8 11.7 11 1.1.5 5.8 2.7 7.4 1 2.1-2.2-3.2-9.4-1.5-10.7 1.6-1.3 7 5.1 11.2 3.3 1.5-.6 2.6-2.2 2.8-3.8.4-4.2-6.3-7.4-5.6-8.7s7.2 2.8 11.2 0c1.6-1.1 2.7-3.2 2.6-5.1-.3-3.4-4.6-5.9-11.7-8.8-18.2-7.4-29.6-7.3-30.4-11.9-.4-2.2 1.8-4.7 3.1-6.1 2.3-2.6 5-3.6 6.9-4.3 4.7-1.8 9-4.7 13.6-6.6 10.4-4.4 17.9-17.8 24-28.8 4.3-7.7 9.8-19.5 13.3-35.1.6 6.9 3.6 12.2 7.9 13.4.4.1 1.8.5 3.5.2 7.1-1.3 10.6-13.2 11.7-17 3.7-12.5 1.9-22.9 0-34.4 0 0-1.2-7.3-6.3-18.6-.9-1.9-2.3-4.9-5.4-7.1-.7-.5-5-3.5-8.2-2-2.6 1.2-3.2 5-3.7 8.9-1.4 12.7.1 21.6.3 30.6.1 3.9 0 9.8-1.2 17.3-1.6-2.3-4-5.9-6.5-10.4-8-14.5-8.5-22.6-12.3-32.6-10.1-26.5-33.8-39.6-36.6-41-8.6-4.6-16.6-6.5-22-7.5 2.5-2.8 5.9-7 8.8-12.8 2.1-4.1 6.1-11.8 3.8-13.9-1.8-1.7-7.5.2-10.7 3.6-1.9 2-2.3 4-3.2 3.8-1.7-.2-2.3-7.2-2.6-10-.5-5.4.1-7-1.1-7.9-2-1.4-6.8.5-9.3 3.7-2.6 3.4-2.1 7.2-3.3 7.3-1.1.1-1.6-3.1-4.5-7.1-1.6-2.3-4.2-6.1-6.4-5.7-2.9.5-5 8.7-3.8 15.3 2.1 11.8 14.5 18 17.4 19.3-5 .2-12.7 1.3-21.1 5.2z"
			fill="#fff"/>
		<g fill="#390099">
			<path
				d="m993.5 1065.5c-2.3-6.2 1.2-11.8 2-13 4-6.3 10.7-7.6 12.1-7.8 2-.3 8-1.3 12.6 2.7 4.6 3.9 5.4 10.4 4 15.3-2.3 7.6-9.7 10.1-11.2 10.6-1.6.5-6.9 2.3-12.5-.4-1.1-.5-5.2-2.6-7-7.4z"/>
			<path
				d="m1548.9 1096.1c-.4-.5-1.3-.6-2-.5-.5.1-.9.3-1.6.9-1.4 1.2-2 2.4-2 2.4-1.6 2.8-4 5.2-5.9 7.9-3.3 4.9-10.4 13.3-19.9 24.8-10 12-15 18.1-18.5 21.7-8.9 9.3-16.6 15.8-26 23.7-7 5.9-12.9 10.6-17.2 13.9-.9-4.6-2.4-11.7-5.1-20-2.1-6.6-3.4-9.2-5.2-14.6-1.4-4.2-4.4-13.8-5.6-25.8-.8-7.4-2.1-20.7 2-35.6 1.7-6 4-11.8 5-14 1.5-3.6 3.2-6.8 6.6-13.4 0 0 4.9-9.3 9.4-11.1.4-.1 1.4-.5 2.1-.1.9.6.8 2.1.7 2.9-.6 8.5-3 15.7-3 15.7-1.7 5.3-2.6 7.9-2.9 9.1-.9 4-1.7 8.4-.8 13.5.3 1.4 2.3 11 10.7 14.9 6.4 2.9 12.7.9 14.7.1 7-2.7 10.3-8.6 13.4-14.3 2.8-5.1 8.5-15.8 6.5-30.1-.2-1.3-3.1-19.9-19.4-30.9-2.6-1.8-8.1-5.4-16.2-6.6-10.6-1.5-18.9 2.4-23 4.3-17.8 8.5-26.3 25.9-30.7 35.2-2.7 5.7-6.7 22-14.7 54.6-2.4 9.8-4.6 18.9-10.4 30.1-1.6 3.1-4.9 8.3-11.3 18.5-8.8 13.9-13.2 20.8-15.9 24.4-3.6 4.8-20 26.3-26.2 23.3-1.7-.8-2.6-3.3-2-15.3.9-16.8 3.7-28.2 7.9-48.8 2.8-13.6 4.5-22.4 5.6-28.3 1.3-6.9 2.3-12.6 2.9-16.4.2-1.4 1.7-15 2.5-24.3.1-.7.2-2.2-.1-4-.8-5-4.1-8.2-5.4-9.6-2.4-2.4-4.1-2.5-11.5-6.5-2.5-1.3-1.1-.6-18.4-8.4-3.3-1.5-5.8-2.6-8.2-1.5-2.3 1.1-3.4 3.8-3.7 5.9-.3 2.9 1 4.8 1.9 7 .7 1.7 1.3 4.1-.2 14.8-1.7 11.5-4.1 20.3-4.3 21.3-2.6 9.4-3.4 9.6-6.1 19.4-2.3 8.4-2.2 9.9-4.1 17.1-2.6 9.7-5.5 16.7-7.7 22.1-3.9 9.4-8.3 17.2-17.1 32.7-4.8 8.4-8 13.7-14.6 17.6-2.1 1.3-8.7 5.2-12.3 2.8-.9-.6-3.7-3.1.1-21.1 2.5-11.5 5.7-20.1 7.7-25 4.5-11.5 9-22.8 17.6-36.6 5.9-9.5 9-14.5 14.8-20.7.9-1 8.2-8.6 16.6-17.9 1.6-1.8 5.6-6.2 7-12.8.9-4.2.2-6.3-.3-7.3-1.9-4.1-6.4-5.4-6.9-5.5-5.1-1.3-10.1 1.9-14 4.7-15.7 11.3-22.7 21-22.7 21.1-4.7 5.5-9.6 11.9-14.4 19.2-7.1 10.7-12.5 21-16.5 30-6.6 13.4-10 25-11.9 33.1-3.5 15-9 39.1 2.6 54 1.5 1.9 5.5 7.1 12.5 9.3 5.8 1.9 10.7.9 14.7 0 11.7-2.5 19.4-9.3 25.7-14.9 3.3-3 8-7.6 12.6-14.2 1.8 4.4 7.7 17.2 22.1 25.4 4 2.3 16 8.9 30.9 6.3 13-2.3 20.9-10.4 28.3-18.1 10.3-10.6 15.3-21 24.9-41.4 5.2-11.1 9-20.4 11.4-26.6 3.4 11.5 7.6 23.7 12.9 36.5 2.9 7 5.8 13.5 8.8 19.8-20.9 17.1-35.3 34.2-44.7 47-12.5 17.1-19.9 31.8-26.5 44.9-5.8 11.5-8.7 17.5-10.6 24.5-2.3 8.9-8.1 31.4 4.1 51.9 8.7 14.5 22.1 20.7 27.9 23.3 25.8 11.5 50.1 2.5 55.6.5s16.9-6.4 27.1-17.2c10.5-11.2 14.1-23.3 17.8-35.5 1.2-3.9 4.3-15.2 5.1-30.3.2-3.2.4-10.7-2.1-31.9-2.4-20.2-4.5-36.8-10.4-58.3-3.1-11-6.2-20-8.5-25.9 8.7-6.2 15.7-11.9 20.7-16.3 9.9-8.6 19.9-17.3 29.6-31.1 1.9-2.7 3.5-5.3 6.9-10.7 6.6-10.6 13.6-22.9 16.7-28.6.7-1.3 2.4-4.3 4.8-8.3.7-1.2 1.6-2.6 2.8-4.4 2.4-3.6 3.7-5.4 5.3-8.5 1.7-3.4 1.6-4.4 1.2-4.9zm-122.1 260.5c-4.5 11.3-10.6 26.2-24.5 30.6-1.7.5-12.3 3.8-22-2-8.2-4.9-10.8-13.3-12-17.4-3.5-11.3-1-21.5 1.3-29.4 10.3-34.9 28.6-60.7 34.2-68.4 5.8-8 14.4-18.9 26-30.9 3.3 21.7 4.3 39.8 4.6 52.6 1 40.5-4.5 57-7.6 64.9z"/>
			<path
				d="m1307.9 1021.4c.2-3.1.8-11 3.9-20.8.5-1.6 1-3 1.4-4.2-2 0-3.8 0-5.6 0-14.5-.1-35.4-.1-61.7.3 1-3.2 2.3-7.9 3.6-13.7 2-9.2 3.1-13.9 2.7-20-.2-3.6-.5-8.9-3.6-14.9-1.4-2.7-5.5-10.7-14.8-14.4-2.2-.9-11.4-4.6-18.3-.1-1.9 1.3-3.7 3.2-6.6 10.5-4.1 10.1-5.7 18.4-6.1 20.2-1.3 6.9-3.7 16.6-8.2 28.4-9.8-1-17.9-1.6-23.4-1.9-16.9-1-25.2-.7-68.8-.4-.1 0-5.9 0-13.9.3-7.7.3-11.6.5-15.1 1-1.4.2-8.4 1.4-16.9 5.2-11.1 5-23.8 13.9-22.3 18.2.5 1.4 2.5 2.5 3.7 3.1 2.3 1.2 4.4 1.4 5.4 1.5 5 .4 9-.3 14-.7 7.7-.5 18-.2 19.5-.3h1.7c3.1-.1 8-.1 17.6.1 17 .4 30.4 1 34 1.2 13.6.7 32.8 1.7 56.9 3.2-5.7 24.3-11.3 48.9-16.9 73.7-3.1 13.9-6.1 27.8-9.1 41.6-17.5 15.7-35.1 31.5-52.6 47.2-2-6.3-4.7-15.4-7.5-26.7-3.8-15.4-5.8-23.2-6.5-33.7-.6-8.7-1.3-19.9 2.7-33.2 1.7-5.8 3.7-9.7 7.6-17.4 0 0 1.5-3 8.1-11.3 1-1.2 2.7-3.4 5.1-3.4.4 0 1.6 0 2.3.8 1.1 1.2.5 3.6-2.6 10.1-1.8 3.8-3.1 6.1-4.9 9.3-3.6 6.7-5.4 10.1-5.7 12.3-.1 1-1 7 2.6 12.3 5.6 8.4 17.6 7.8 19.7 7.7 10.5-.6 17.3-7.3 19.1-9.2 8.9-9.1 9.6-20.9 10-28.7.5-9.2 1.2-23.5-9.2-35.6-.8-.9-13.5-15.2-32.4-14-2.2.1-12.3.9-24.3 10.5-26.6 21.1-30.8 59.9-32.4 75.1-2.3 21.5 1.2 27.5-4.5 45.7-3.9 12.3-9.8 23.2-14.8 32.4-1.4 2.7-6.4 10.1-16.2 25-4.4 6.6-7 10.4-12.1 13.3-.8.5-11.6 6.2-17.9 1.7-3.8-2.7-4.7-8.3-4.1-18 .9-15.4 4.7-26.5 10.6-43.6 4.8-13.7 7.9-28 12.9-41.5 3.2-8.7 6.7-17 2.7-22.8-3.2-4.7-9.9-5.8-12.3-6.1-1.6-.3-8.5-1.4-14.4 2.2-5.1 3.1-7.1 8.2-9.8 16.9-2.5 8.2-5.5 19.5-7.8 33.4l-2.4 10.6c-2.3 14.4-3.6 26.7-4.4 35.9-1.3 14.4-1.2 19.8 0 25.9 1.6 8.3 3.4 17.4 11.1 24.3 10 9 24.8 9.6 35.2 5.8 5.5-2 8.7-4.9 14.1-9.7 8.5-7.6 16-16.8 34.7-48.9 3.2-5.6 5.8-10.1 7.5-13.1 2.7 11.4 5.4 22.7 8.2 34.1-19.1 21.1-33.1 39.6-42.6 53-8.5 12-12.8 18.1-17.2 27.1-5.3 10.7-16.3 33.8-13.5 63.1.7 7.1 1.4 14.4 5.4 23.2 2.4 5.4 12.8 26.6 35.3 32.6 10.7 2.9 20.2 1.2 23.8.5 2.4-.4 9.8-2 18.3-6.8 2-1.1 8.7-5 15.9-12.7 11.6-12.4 16.3-25.7 20.3-37.4 4-11.9 5.5-21 7-29.9 1.1-6.8 3.9-25.5 3.1-49.3-.3-9-1.1-15.1-2.2-24.5-.8-6.5-1.5-11.1-3.1-16.6-.4-1.3-1.1-3.9-3.4-9.8-1.9-4.8-4.6-11.4-8.2-19.3 13.2-11.3 26.4-22.5 39.5-33.8-1.6 15.2-2.6 28.1-3.4 37.8 0 0-2.3 29.5-3 60.2-.1 2.5-.1 6.8.1 12.5.3 8.5.6 15.4 2.2 22.6.6 2.7 5.6 23.9 17.5 30.2 6 3.2 12.9 4.1 12.9 4.1 2 .3 3.4.3 3.7.3 8.2.3 14.7-2.8 17.8-4.2 2.9-1.4 6.2-3.9 12.7-8.9.7-.5 8.5-6.6 9.4-11.5.1-.5.4-1.8-.4-2.6-.7-.7-1.9-.6-2.9-.4-3.4.6-5.9 1.9-7.2 2.6-1.2.6-6.2 3-11.6 1.9-.8-.2-4.1-.9-6.8-3.7-2.8-2.8-3.5-6.2-3.8-7.8-3.5-17-4-27.6-4-27.6-.3-5.9-.6-11.3-.7-17.6-.1-2.9-.1-5.6-.1-9.1 0-2.7.1-9.2.9-17.7 1-11.4 2.5-20.3 3.6-26.6.7-3.7 2.3-12.5 3.1-17.1.9-5 1.2-6.1 1.9-10.4 3.6-20.7 2.9-21.5 6.1-37.9 2.4-12.5 4.7-21.9 6-27.1 1.2-4.9 2.7-10.6 5-18.1 3.4-11.2 4.8-13.8 7.9-24.4 2.1-7.1 2.1-8.3 4.3-16.3 1.8-6.8 4.6-16.4 8.6-28.2 21.7.5 39.4.5 52.3.3 9.3-.1 15.3-.3 20.2-.6.1-2.9.7-5 .8-6.8zm-224.5 319.1c-2.5 11.2-5.4 19.4-11.7 27.1-2.7 3.2-9.4 11.1-19.9 13-2.3.4-6.6 1.1-11.2-.8-1-.4-5-2.1-8.7-7.4-5.6-7.9-6.5-18-6.1-27.6.8-22.4 8.3-39.3 10.4-43.7 5.4-11.6 11.1-19 20.9-31.8 9.7-12.6 18.6-22.3 25-28.9 4.2 18 5.7 33.3 6.2 44.3.4 8.6.9 30-4.9 55.8z"/>
			<path
				d="m1385.4 1013.9c-3.2-6.5-3.5-8.8-6.4-13.1-1.9-2.9-3.9-5.1-5.4-6.5-6.4.7-13.2 1.1-23.5 1.6-4.8.2-9.2.4-13.3.5 1.2 3.8 1.7 8.2 3.7 18.1.8 3.8 1.5 7.1 2.1 9.9 1.8-.2 3.4-.5 4.9-.7 7.9-1.2 22.8-3.4 38.9-7.4-.2-.9-.6-1.6-1-2.4z"/>
			<path
				d="m1472.8 944c-1.2-.9-3.6-.1-3.7-.1-.1.1-.2.1-.2.1-3.8 2.9-5.8 5.2-5.8 5.2-2.3 3-5.5 6.9-9.8 11.1-.5.5-3.3 3.2-7 6-8.6 6.8-17.9 11.4-23.2 13.9-13.7 6.3-26.4 9.8-34.8 11.6.6.3 1.3.7 2.1 1.1 4.1 1.9 3.7 1.2 10.6 4 7.3 3 6.5 3.3 11.1 4.9 1.8.6 4.1 1.3 9.1 2.9 3.2-1.5 6.2-3 9-4.7 3.6-2.1 9.1-5.4 15-11.1 6.3-6 11.8-13.6 13.7-16.3.6-.8 1.5-2.1 2.8-3.9 4.9-6.8 6-8.5 6.6-9.5 3.1-4.8 3.8-6.7 4.3-8.1.5-1.8 1.8-5.9.2-7.1z"/>
		</g>
		<path
			d="m1271.8 674c-.3-.4-1-1.1-2-1.3-1.1-.2-2.1.3-2.6.5-4 2.1-5.9 3.2-6.6 3.8-4.7 3.6-18.7 11-25.9 14.8-4.2 2.2-9.6 5.1-17 8.2-5.1 2.1-10.3 4.3-17.5 6.1-5.9 1.5-10.9 2.2-14.5 2.6 6.4-9.4 11.4-17.2 15.1-23.1 2.5-4 6.9-11 5.1-12.9-.6-.6-1.9-.8-2.9-.6-1.8.3-2.9 1.9-3.3 2.4-2.4 3.2-6.3 5-9.2 7.7-5.3 4.9-22.2 14.9-43.1 17.4-8.2 1-14.4.5-17.7.3-15.4-1.1-39.3-1.8-76.1.3 1-2.6 2.1-6.3 2.6-10.7.3-3 .5-7.8-.6-13.1-.8-3.9-3.9-15.2-14.3-23-2-1.5-12.8-9.6-20-5.7-1.8.9-2.7 2.4-4.7 5.2-2.6 3.8-3.8 7.1-6.4 15.2-2.4 7.5-3.5 11.2-4.5 14.9-1.4 5.6-2.5 11-3.3 16.1-3 0-6 0-9 .1.9-2.9 1.9-7 2-12.1.1-2.9.2-6.4-.8-10.1-1.9-6.9-6.7-10.9-13.5-16.6-3.5-2.9-7.4-5.1-15.2-9.6-6.2-3.6-9.2-4.8-12.5-4.1-.8.2-3.2.8-6.3 3.7-5.5 5.2-7.1 12.1-7.8 15.2-2.2 9.4-4.7 19.8-7.7 32-3 .1-7.9.2-13.8.4-49.5 1.2-58.8-.7-83.1 2.1-22.2 2.5-34 6.3-39.1 8 0 0-17.8 6.1-33.6 18-1.9 1.4-3.6 3.1-3.6 3.1-.4.4-1 1-1.8 1.9-1.4 1.6-2.5 2.9-3.1 4.7-.4 1.3-.7 2.2-.3 2.8 1.2 1.8 8.7-1.3 10.9-2.2 7.6-3.1 16.1-5.2 33.3-8.7 5.9-1.2 14.7-2.6 25.9-3-1.9 2.1-13.4 15-12.4 22.3.2 1.2.6 1.7.8 1.9 2.2 2.2 7.9-1.5 17.8-4.3.8-.2 3.4-.8 8.5-2 23.2-5.2 43-6.9 43-6.9 10.9-.9 25.3-1.5 42.4-.3-4.7 20.1-9.4 40.2-14 60.3-4.6 19.8-9.1 39.7-13.5 59.6-11.4 15.3-24.3 30.7-28.6 28.4-.9-.5-2.1-2.1.3-17.4 2.4-15.1 6.5-31.5 9.5-48.3.3-1.5 1.7-9.5-.7-18.9-1.5-6-3.3-7.7-4.1-8.3-4.6-3.8-12.4-2.7-17.4.1-1.3.7-2.2 1.5-2.6 1.8-10.2 8.6-19.4 22.5-19.4 22.5-8.6 13-1.2.3-14 19.9-15.4 23.6-21 34-32.4 51.8-15.9 24.7-24.2 37.7-27.8 36.3-5-2 1.7-30.1 5.4-45.7 3.5-14.9 5.8-23.9 10.5-36.3 2.5-6.4 6.9-17.2 11.5-32.9 3.2-11 3.9-15.9 1.3-19.9-3.3-5-10.4-6.4-18.1-7.9-5.6-1.1-8.6-1.7-12-.3-5.1 2.1-7.4 7.4-10 14.3-5.3 14.5-8 26.2-8.4 27.8-1.9 8.2-6.2 18.2-14.9 38.1-6.6 15.2-10.4 24.1-16.7 35.2-6.9 12.3-23.2 41.8-30.8 39.3-5.1-1.7-4.4-17.3-3.7-30 .3-6.9 1.2-15.4 6.6-39.8 5.9-26.5 11.1-44.3 12.6-49.4 4.1-13.8 6.1-20.7 9.7-29.8 6.4-16.1 13.2-28.7 16.5-34.7 3.7-6.7 6.1-10.6 12.9-23.1 3.6-6.6 5.3-9.8 7.5-14.1 3.5-7 3.7-9 11.9-26.4 4.6-9.7 6.5-13.4 8.5-20.3 2.5-8.7 3.2-15.5 3.6-20.3.8-8.8 1.1-13.3-.6-18.7-.9-2.7-2.8-8.5-8.2-12.8-7.6-6-16.9-4.9-21.4-4.4-2.5.3-7.6.9-13 4.2-4.7 2.8-7.5 6.4-9.6 9.3-8.3 11.7-12.2 24.4-13.8 29.4 0 0-7.6 23.4-10.2 32.9-4.4 16-9.1 31.9-13.3 48-6.1 23.4-15.8 60.3-27.6 105.6-16.7-.4-33.4-.8-50-1.1.2-2.9 1.4-17 1.7-19.9 2.5-30.5 2.8-33.4 3.4-39.7 0 0 2.9-26.1 12.3-46 1.4-2.9 3.9-7.6 7.4-7.8 2.7-.1 4.9 2.5 5.7 3.6 2.9 3.5 2.5 6.6 4.1 12.5 1.7 6.4 2.8 10.5 6.1 12.9 4.2 3 9.7 1.8 15.7.5 4.8-1.1 10.8-2.3 13.8-7.3.8-1.3 1.6-3.2 1.8-8.2.4-9.8-1.8-18-3.4-23-1.7-5.2-3.7-11.3-8.3-18.1-3.2-4.8-9.3-13.9-21.2-19.5-16.9-8-33-2.8-35.6-1.9-11.9 4-18.8 11.7-21.8 15.2-2.5 2.9-7.3 8.9-13.4 26.6-2.2 6.5-6 18.5-10 43.4-2.1 13.1-2.5 18.5-5.1 38.5-2.2 16.9-4.2 30.6-5.4 39.2-7.7-.2-14.2-.1-19 0-.5 0-.9 0-1.3 0-7.3.3-14 .7-20.9 1.5-14.1 1.5-15.7 2.7-16.6 4.1-1.9 3.1-.4 6.9-.3 7.2 1.2 3 3.8 4.6 9.5 7 8.3 3.6 13.5 5.8 21.6 7.3 5.8 1.1 11.1 1.4 14.5 1.6 3.2.2 5.9.2 7.9.3-2.9 24.6-5.7 45.6-8.2 62.3-3.9 26.7-7.5 47.6-10.2 63.3-3.5 20.1-4.2 24-4.6 26-.5 2.5-1.9 8.8-3.4 17.6-.5 3.1-1 5.5-1.1 6.9-.4 2.7-2.8 21.4 9.7 32 12.4 10.5 30.4 4.5 31.5 4.1 2.2-.8 8.8-3.2 14-9.5 3.7-4.6 5.2-9.2 6.3-13.8 3.6-14.3 4-26.2 4.3-31.5.8-16.9 1.2-9.1 3.2-40.3 1.2-19.3.9-20.3 2-33.9.4-4.7 1.4-13.1 3.2-30 2.1-19.2 2.9-24.5 3.7-30 1.4-9.1 2.7-16.5 3.7-21.4 15.2 0 30.5 0 45.7-.1-3.1 11.5-5 21.5-6.3 29.2-2.8 24-4.2 35.9-1.4 47.7 1.5 6.4 3 12.4 8.3 18 6.4 6.6 15.6 9.5 23.7 8.9 3.4-.3 5.8-1.1 9.7-2.6 2.1-.8 9.7-3.7 19.8-11.5 7.8-6 12.8-11.6 17.5-17 5.3-6 9.3-11.4 12.1-15.5.8 3.6 2.9 10.7 9.2 17.1 1.4 1.4 10.8 10.7 24.9 10.4 6.9-.2 11.9-2.5 15.7-4.4 9.5-4.6 15.3-11.2 20-16.7 15.5-18.5 26.3-36.1 33.4-48.1 5.5-9.3 9.9-17.2 13-22.9-.4 5.2-.7 12.8.6 21.8 2 13.7 3.3 23.1 10.7 27.8 9.8 6.3 24 .4 26.7-.8 4.6-1.9 7.9-4.4 10.1-6.3-2.6 18.3-4.2 33.3-5.2 44.2-.7 7.3-1 12.2-1 18.4 0 9.1.1 19.5 3.6 32.3 3.8 13.9 9.1 20.9 10.8 23.1 3.6 4.6 6.6 6.8 7.5 7.4 2.4 1.7 9 6 18.1 6.3 4.8.1 8.8-1.2 16.9-4 .3-.1 8-2.8 16.5-8.3 2.4-1.6 5.7-3.9 6.3-7.5.1-.6.3-2.2-.5-3.2-1.3-1.6-4.3-.9-8-.4-6.7.9-12.3 1.7-16.1-.8-1.5-1-2.6-2.3-4.3-6.3-5-11-5.9-19.9-5.9-19.9-1.4-13.6-.4-25.1.1-30.5 1.7-18.4 2.5-27.6 4.2-40.6 2.7-20.8 5.3-35.5 6.4-41.4 1.7-9.5 2.9-16 5.1-25 1.7-6.9 3.8-14 7.9-28 4.7-16 7.1-23.9 9.2-30 2.2-6.3 3.4-9.3 11.1-29.1 4.6-11.9 8.3-21.2 10.3-26.6 4.9.3 9.8.5 14.7.8-2.1 10.1-5.2 25.2-9.2 43.5-13.2 61.3-16.2 70-21.6 100.3 0 0-5.3 29.6-8.3 87.1-.2 2.9-.9 19.9 5.4 40 4.3 13.7 8.7 19.1 12.1 22.3 1.6 1.5 12.6 11.8 25.7 9.9 4.4-.7 8.3-2.6 11-4 1.9-1 6.4-3.4 11.1-7.7 0 0 2.9-2.7 5.8-7.1 2.2-3.3 2.2-4.4 1.9-4.9-.6-.8-2.2-.9-3.3-.5s-1.8 1.2-2 1.5c-2.3 2.8-7.6 3.9-11.1 3.2-2-.4-3.8-1.4-6-3.6-5.9-5.8-8.2-13.7-9.8-20.7-2.1-9.4-2.9-17.5-3.2-24.3-.6-11.6.1-20.5.6-27.1.7-8.8 1.6-14.9 3.5-27.1 1.2-8.1 2.8-18.2 5.6-31.2.7-3.4.6-2.8 4.8-20.2 5.4-22.8 5.4-23.2 6.7-28.2 2-7.6 4.2-14.6 8.6-28.4 5.7-18 7-21.2 10.6-32.5 2.7-8.6 6.4-20.9 10.3-36 9.8.9 25.2 2 44.4 2.7 16.7.6 15.6 0 33.1.6 26.5.9 34.3 2.3 52.6 1.3 1.2-.1 11.4-.7 24.6-3.4 10.5-2.1 15.4-4.1 19.6-6.3 5.1-2.7 8.8-5.7 10.8-7.3 1.8-1.5 4-3.4 11.3-11 3.9-4.1 6.5-7 10.5-11.2 0 0 8.4-9.1 19.9-24.6.4-1.3 3.9-6.1 2.5-8.2zm-547.7 2.4c2-7.3 4.2-14.9 7.8-24 6.2-15.5 8.9-16.3 10-16.2.5.1.8.4 1 .5 2.4 2 .8 8.2-3.6 19.4-6.7 17.2-13.4 28.8-14.8 31.3-2.4 4.2-4.6 7.7-6 9.9 2.2-8.4 4.1-15.6 5.6-20.9z"
			fill="#9c59d1"/>
		<path
			d="m1301.8 780.7c-6.3-7.4-14.4-9.8-17-10.5-11.2-3.1-20.7.2-26.9 2.4-22 7.8-34.6 25.9-39.4 33.8 0-3.7 0-8.5-.5-13.9-.5-6.2-.8-9.3-2-13.4-2.1-7.1-5.5-11.7-6.3-12.8-2.1-2.9-5.3-7.1-11.1-10.1-2.5-1.3-7.5-3.9-13.7-2.8-1.9.3-4.2.7-6.3 2.4-3.3 2.8-4 7.4-4 16.2 0 8.1.6 13.2 1 18.8.7 8.6.2 8.1.9 27.1.2 4.7.5 11.4.9 19.5-3.6 5.6-8.8 13.3-15.4 22-4.3 5.7-7.7 10.2-12.8 15.8-9.9 11.1-17.8 17.4-30.1 27.2-6.3 5-8.4 6.4-11.6 7.5-10.9 3.8-21.2-.3-23.7-1.4-5.4-2.3-9.1-5.6-11.4-7.9 17.1-15.4 31.4-28.2 46.1-41.4 0 0 5.5-4.9 27.6-28.5 6.2-6.6 11.3-12.2 14.3-21.3 1.5-4.5 4.6-13.8.3-22.2-3.7-7.3-11-10.3-14.8-11.7-24.6-9.6-53.4 5.7-59.5 8.9-29.5 15.7-42.9 41.1-46.5 48.5-4.2 8.7-17.2 36.3-8.7 67.9 2.2 8.2 5.3 19.8 15.6 29.4 20.9 19.5 51.9 12.7 55.8 11.7 16.4-3.9 27.2-13.2 40.9-25 10-8.7 17.4-17.1 22.2-23.2-.6 9.7-1.2 17.6-1.7 22.8-1.3 14.7-1.3 29.4-2.5 44.1-.5 5.7-1 10.8 2 15.7 4.6 7.6 13.8 8.8 14.3 8.8 1.6.2 9.2.9 14.4-4.2 2.6-2.5 3.5-5.5 4.5-9.1 3-11.4 3.4-20.3 4.2-28.6.4-3.7 1.2-9.5 2.8-21.1 1.4-9.6 2.5-17.8 3.6-23.5 4.3-22.7 13.5-39.8 15.5-43.4 5.5-10 12.1-17.7 25.4-33.2 10.8-12.6 15.1-16 21.1-18.2 9.5-3.5 20-2.1 24.9-.2 3.8 1.5 5.1 2.4 5.1 2.4 3.4 2.3 5.1 5 7.1 4.4.6-.2 1-.5 1.2-.8 2.9-2.5 3.6-17.7-5.8-28.9zm-212 52.2c4.2-4.7 14.9-15.6 31.9-22 5.5-2.1 15.2-4.9 16.2-2.9.3.6.2 2.3-15.1 14.7-13.8 11.3-12.9 9.3-22.3 17.2-5.4 4.6-10.6 8.3-20.9 15.6-2.6 1.9-4.4 3.1-5 2.6-1.7-1.4 5.8-14.7 15.2-25.2z"
			fill="#9c59d1"/>
		<path
			d="m1334.4 854.4c-.2-1.4-.6-3.5-2.4-4.9-2.2-1.8-5-1.3-5.5-1.2-2.1.4-3.5 1.6-4.3 2.4-.9.8-1.4 1.5-2.4 2.8-1.1 1.5-1.5 2.4-2.9 4-.3.3-.5.5-.9 1-3.4 3.5-4 3.8-4.8 4.8-2.4 3.1-1.8 7.2-1.8 7.5.2 1 .6 4 3.1 5.6s5.5.8 7.5.2c3.4-1 5.5-3 7-4.5 2.7-2.7 4-5.4 5-7.3 1.5-3.2 3-6.4 2.4-10.4zm-15.8 7.1c.1-.8.2-2.1 1.2-3.3.3-.4 1.2-1.2 2.4-1.4.6-.1 1.8-.4 2.8.4 1 .9 1 2.3.9 2.5-.1 1.1-.7 1.8-1.3 2.6-.5.6-1.4 1.7-3 2.1-.7.2-1.8.5-2.5-.1-.7-.5-.6-1.8-.5-2.8zm13.1-3c-.6 3.5-2.4 5.9-4.1 8.3-1.8 2.4-3.3 3.7-3.9 4.2-1.9 1.5-3.4 2.2-4 2.5-1.8.8-2.9 1.2-4.2.9-1.6-.4-2.8-1.7-3.3-3.1-.7-1.7-.1-3.3.5-4.9.1-.3.5-1.5 1.5-2.8.8-1.1 1.6-1.9 2.3-2.4-.1.3-.6 3.2 1.1 4.8.6.5 1.2.7 1.6.8 1.8.6 3.4-.2 4.1-.4 2.8-1.2 4-3.9 4.4-4.8s.9-2.5.4-4.1c-.1-.2-.4-1.1-1.3-1.9-1.8-1.6-4.3-1.3-4.7-1.2.4-.6 1-1.4 1.9-2.1s2.1-1.7 3.8-1.7c.4 0 1.9 0 3.1 1.1 1.7 1.7 1.1 5 .8 6.8z"
			fill="#393939"/>
		<path
			d="m1395.7 863.3c-.5-3.7-1.2-6.3-2.2-8.6-1.1-2.5-2-3.6-3.1-4.3-.5-.3-1.9-1.2-3.5-1-2.4.3-3.8 2.6-4.5 3.8-1.4 2.3-1.6 4.4-1.8 6.5-.4 4.8.8 8.5 1.2 9.5 1 2.8 2 5.5 4.6 7.1.7.4 3 1.8 5.3 1 2.5-.9 3.4-3.7 3.9-5.3.8-2.6.6-4.8.1-8.7zm-3.2-1.7c0 .3.1.9 0 2.1-.1.9-.2 1.4-.4 2.1s-.4 1.2-1 1.8c-.2.2-.8.8-1.7.9-.3 0-.8.1-1.3-.2-.7-.4-.8-1.4-.9-2.2-.1-1.1-.2-2.6.7-4.1.3-.5 1.2-1.9 2.7-2.1.2 0 1-.1 1.6.4.1.3.2.6.3 1.3zm1 9.1c-.2 1.2-.6 3.3-2.3 4.1-1.3.6-2.6.1-2.9 0-2-.8-2.9-2.9-3.8-5.1-.5-1.4-2-5.3-1.4-10.6.2-2.4.8-4 1.8-5.3.4-.5 1.5-1.8 2.7-1.6.4 0 .6.2.9.4.9.6 1.4 1.4 1.7 2.1.5 1 1.1 2.4 1.7 3.9-.4-.2-1.6-.5-3-.1-1.3.4-1.9 1.3-2.4 1.9-1.9 2.6-1.3 5.6-1.2 6 .2 1 .6 2.8 2.1 3.5 1.2.6 2.4.2 2.9 0 1.9-.6 2.9-2.2 3.1-2.6.2.7.3 1.9.1 3.4z"
			fill="#393939"/>
		<path
			d="m1413.8 865.9c-.8-10-3.4-16.7-6.6-25-.6-1.5-1.4-3.6-3.3-5.9-2.3-2.8-4.9-4.2-6.8-5.2-1.4-.8-4.8-2.5-9.4-3.1 0 0-9.1-1.1-18.4 4.5-1.6.9-4.2 2.9-5.6 4.2 0 0-.2.2-.4.3-1.6 1.5-3 2.7-3 2.7s-2.8-5.2-3.2-6c-1.6-2.8-4.1-3.9-8.4-6-1.6-.8-4.2-1.9-7.6-2.5-9-1.4-16.4 2.8-19.7 4.7-.7.4-3.6 2.1-7 5-8.6 7.5-12.5 16.5-15.3 23.3-3.5 8.4-4.8 15.2-5.2 17.8-2 11.9-.1 18.4.3 19.9 1 3.2 2.1 6.9 5.6 9.5 3.6 2.8 7.7 2.9 9.3 3 3.9.1 6.7-1.1 9.7-2.4 2.9-1.3 4.9-2.6 8.9-5.3 2.2-1.5 5.1-3.6 8.4-6.2.5 1.3 1 2.6 1.5 3.9-1.4 1.2-3.3 3-5.3 5.5-3.2 4-4.9 7.4-7.2 12.3 0 0-2.7 5.7-5.3 14.8 0 0-.8 2.9-.6 7.2.1.8.2 2.1 1 3.3.2.2.8 1.1 1.5 1.4 1.9.9 4.5-1.2 6.1-2.4 3.7-2.8 7.6-5.3 11.2-8.2 4.2-3.4 3.3-2.4 8.8-6.8 4.1-3.2 6.6-5.2 9.8-8.1 2.7-2.4 4.4-4 6.6-6.4 2.1-2.3 4-4.4 5.9-7.7 1.7-2.9 2.7-5.6 3.3-7.5 1 1.6 2.5 4 4.7 6.4 2.8 3 5.2 5.6 9.3 6.8 3.9 1.2 7.2.4 8.7.1 5-1.2 8.1-4.1 9.6-5.6 4.8-4.6 6.2-10.1 6.9-12.7.2-.9.6-2.6 1-8.3.4-6.4.6-10.2.2-15.3zm-43.8 23.8c-.7 6.9-5.6 12.4-7 13.9-7.8 8.6-15.2 13.9-22.9 19.9-3.6 2.8-9.1 7.2-15.8 12.9.2-1.6.5-3.9 1-6.6.8-4.2 2-10.1 5.4-16.5 1.7-3.2 4.7-8 9.8-12.8.6.7 1.6 1.5 3 2.2 5.1 2.6 10.7.1 11.8-.4.9-.4 9-4.2 9.3-11.6 0-.7.1-5.2-3-7.9-3.4-2.9-8.4-1.9-13.1-.9-4.4.9-7.9 2.6-10 3.9-.2-.9-.4-2.8.3-4.9.8-2.2 2.1-3.5 2.7-4 3.3-3 7.7-3 10.3-3.1 2.4 0 8.1-.1 13 4 1.1.9 3.4 2.9 4.5 6.3.5.8 1 2.7.7 5.6zm-29.9.8c.3-.9 1.6-1.3 4.9-2 4.8-1.1 6.4-1.4 8.2-1.6 4.3-.7 4.9-.6 5.4-.1 1.5 1.4.4 4.8.1 5.7-1.2 3.6-4.3 5.4-4.8 5.6-.5.3-4.3 2.3-7.6.8-1.5-.7-2.6-1.9-3.2-2.6-.3-.4-.6-.7-.9-1-.3-.4-.8-1.1-1.3-1.9-.5-1.3-1-2.2-.8-2.9zm68.6-5.5c-.8 4.6-1.9 8.2-4.3 11.7-1.5 2-3.9 5.3-8.3 6.5-4.5 1.2-8.4-.7-9.2-1.1-1.1-.6-2.2-1.3-6.9-6.8-2.1-2.4-3.8-4.5-4.9-6 .2-1.8.3-5.2-1.4-8.8-2.5-5.4-7.3-7.7-9.7-8.9-7.9-3.7-20-4.4-26.3 2.2-3.3 3.5-4.2 8.1-4.2 8.1-.6 3.3-.1 6 .3 7.5-1.5 1-3.7 2.5-6.4 4.3-3.6 2.3-5.4 3.5-7.1 4.5-4.1 2.3-6.6 3.6-10 3.9-1.8.2-4 .4-6.2-.9-2.2-1.2-3.6-3.5-4.7-6.9-1.3-4.2-2.1-10.3 0-20.5 2.2-10.9 6-18.6 7.9-22.2 3.2-6 5.3-9.8 9.7-13.9 2.4-2.2 9.4-8.4 19.6-8.9 2.3-.1 6.6-.3 11.2 2 2.3 1.2 5.4 2.7 7.4 6 1.5 2.5 2 5.5 3.8 5.7.7.1 1.2-.2 1.5-.4 3.6-2.1 10.7-7.6 12.5-8.8 5.4-3.7 12.9-3.8 18.3-1.7 4.5 1.8 7 5 8.9 7.5 4.3 5.5 5.6 10.8 7.1 17.4 3.2 13.5 2.2 23.5 1.4 28.5z"
			fill="#393939"/>
		<path
			d="m1475.7 878.9c-.9-7.6-2.6-12.6-4.8-19.6-.5-1.7-2-5.9-5-10.7-3.5-5.4-5.9-6.4-6.9-6.7-.4-.1-4.3-1.3-7.5 1-1.3.9-2.3 2.2-3.3 5-2 5.6-1.7 10.6-1.6 12 .4 6.3-.1 12.6.1 19 .2 4.6.4 11.3.6 19.7-1.5-3.3-3.8-8.3-6.3-14.6-3.8-9.4-5.2-13.9-7.5-19.7-3.9-9.7-6.9-16.8-12.3-24.7-2.3-3.3-7-9.9-15-16.2-10.9-8.6-23.4-13-31-15.3.4-.4.7-.8.8-1.1 4-6 3.8-4.4 5.8-8 1.9-3.5 3.7-7 3.9-11.7.1-3.4-.8-4.6-1.3-5.2-1.3-1.5-3.4-2.1-5.1-2-1.7.2-3.2 1.4-6.3 3.7-1.2 1-2.2 1.8-2.9 2.4 0-2.2 0-4.5-.1-7-.3-4.5.4-6.3-.9-8.3-.2-.4-1.4-2-3.3-2.5-2.4-.5-4.5 1.2-6.6 2.9-1.9 1.5-4.6 4.2-6.9 8.6-.3-.6-.8-1.5-1.4-2.7-2-3.9-1.9-4.6-2.9-5.8-.6-.8-2.5-3.2-5.4-3.2-2.8 0-4.6 2.2-4.9 2.6-1.2 1.5-1.4 3.2-1.7 6.6-.2 1.9-.4 3.9-.1 6.6.1 1.6.7 7.7 3.4 12.4 3.1 5.3 8.1 7.3 18.1 11.1 7.4 2.8 8.2 2.2 17.9 5.4 6.9 2.3 12.1 4.1 17.9 7.2 2.7 1.5 11.1 6.3 18.9 15.2s11.2 17.6 16.3 30.5c3.6 9.1 5.2 15.2 9.2 23 1.7 3.3 3 6.7 4.6 10 1.2 2.5 2.2 4.6 2.8 7.5.3 1.5.5 3.4.4 6.1-.5 10.2-5.5 22.2-5.5 22.2-2.1 5-4.9 11.6-10.6 19.1-5.9 7.8-12 12.6-13.8 13.9-7.3 5.6-21.2 13.8-23.6 15.2-.1.1-1.2.7-2.4 1.6-1.4 1.1-2.2 1.6-2.8 2.6-.2.4-1.3 2.1-.9 4 .4 2.1 2.4 3.2 4 4.1 2.7 1.5 5.1 1.9 6.3 2.1.4.1 4 1.3 11.4 3.8 2.8.9 5.9 2.2 12.2 4.6 0 0 .9.3 2.7 1.2 4.5 2.2 5.2 3.1 5.5 3.9.1.3.6 1.5 0 2.6-.7 1.2-2.5 1.3-4.1 1.5-2 .2-2.7-.2-5.7-.1-2 .1-2.5.3-2.7.6-.8 1.1.3 3.1.6 3.6.6 1.1 1.1 1.4 2.2 2.7 1.5 1.8 2.2 2.2 2.1 3s-.9 1.3-1 1.4c-1 .6-2.1.3-3.3 0-1.5-.4-2.6-1-4-1.9-1.5-.9-1.7-1.2-2.7-1.5-.9-.3-2-.6-2.9-.1-1.1.7-1.3 2.5-.9 3.8.3.9.6.8 1.5 2.2.8 1.2 1.8 2.8 1.3 4.5-.1.4-.2.8-.5 1-.5.4-1.6.5-5.4-1.6-2.7-1.5-4-2.3-5.7-3.9-4.8-4.4-7.4-10.3-9.3-14.8-2-4.7-2.5-6.9-5.2-12.4-1.5-2.9-2.5-4.5-4.2-6.1-3.1-2.8-6.5-3.7-7.8-4-1.8-.5-3.1-.5-5.9-.6-7.2-.2-9.1-.1-12.6-.2-4.3-.1-7.8-.3-12.9.4-1.9.3-3.7.6-4.9 2.1-.7 1-1 2.3-.6 5.8.5 4.1 1.6 6.9 2.5 9.5 0 0 1.5 4.4 2.8 9.4.4 1.6 1.7 6.8 2.4 13.5.3 3.5.6 7.1-.3 7.4-.8.2-2.1-2-3.1-3.5-1.3-2.1-1.3-3-2.7-5.2-1.2-2-2-3.1-3.1-3.1s-1.9 1.4-2.6 2.5c-.4.6-1 1.8-1.5 4-.6 2.8-.3 4.1-1.3 6.7-.6 1.6-.9 1.6-1 1.6s-.5-.1-.9-3.1c-.3-2.6-.3-4.2-.3-4.2.1-5.7.2-7.7-.3-10.5-.4-2.3-.9-3.2-1.7-3.6-1.1-.5-2.5-.1-3.3.4-.4.3-.9.7-2.1 2.9-.7 1.2-.9 1.7-1.5 3-.1.1-1.4 2.8-3.6 5.8-.8 1-1.2 1.5-1.6 1.4-.6-.1-.7-1.5-.9-2.8-.2-1.5-.2-2.6-.2-2.7.1-3.1.5-5.5.5-5.5.6-4 .5-4.2 1-7.2 1.5-9.3 3.5-10 3.7-16 .1-2.6.2-6.1-1.6-10-1.8-3.7-4.6-6.1-8.2-9-3.3-2.7-6.1-4.3-6.9-4.8-10.8-6.5-17.6-19.1-18.6-21.1-3.8-7.4-4.5-13.4-5.6-24.3-1.8-16.8.5-29.9 2.5-41.5 1.4-7.8 2.4-10.9 3-12.5.7-2 2.1-5.3 11.4-20.4 2.9-4.7 4.4-7.1 5.8-9.2 1.6-2.3 5.2-7.3 10.6-13.2 7.7-8.5 14.9-14.1 18.1-16.5 2.5-1.8 5.2-3.7 7.1-4.6 1-.5 1.8-1.2 2.8-1.6.5-.2 1.3-.5 1.4-1 .1-.3-.2-.6-.2-.7-.7-.8-2.8 0-3.7.4-5.9 2.4-9.4 4.9-9.4 4.9-4.6 3.4-7.1 5.7-7.1 5.7-11.5 10.7-18.4 19.4-18.4 19.4-4.8 6-10.5 14.2-16 24.6.9-3.8.9-6.9.8-9.1-.2-3-.3-5.2-1.8-7.5-.5-.9-2.5-3.7-5.7-4.6-.8-.2-4.6-1.2-11 3.3-5.4 3.7-9.2 8.9-13.4 17.6-7.7 16-9.6 29.2-10 32.4-.5 5.8-.6 10.7-.5 14.5 0 0 .1 4.9 1.7 10.2.5 1.8 1.5 4.2 3.7 5.5.1.1.2.1.2.1 3 1.6 6.9-.3 7.7-.7 3.6-1.7 5.6-4.9 6.5-6.5 5.2-8.8 9.1-19.4 10.7-23.9-.5 3.6-1.1 8.6-1.5 14.4-.4 5.1-.5 10.1-.5 13.4 0 8.8.1 18.6 4.2 28.7 7.3 17.9 23.7 28.3 27.1 30 .3.2 1.7.8 3.2 2 .6.4 4.6 3.7 6.1 8 1.1 3.1.3 5.2-1.3 12.4-1.8 7.9-2.7 11.9-2.9 15.1-.1 1.1-1.2 16.3 4.1 18.3 1.6.6 3.9-.1 5.2-1.1s1.6-2.2 2.6-4.3c.7-1.6 1.9-3.9 3.6-6.6v9.2c0 1.8.1 4 .9 6.7 1 3.3 2.1 3.9 2.5 4.2 1.2.6 2.8.5 3.9-.2 1.2-.7 1.7-2 2.6-5.3.5-2 1.1-4.6 1.7-7.7.8 1.3 1.4 2.5 2 3.3 1.5 2.3 2.2 3.5 3.1 4.6 1.4 1.8 2.2 2.7 3.2 2.8 1.7.2 3.1-1.4 3.4-1.7 1.2-1.3 1.5-2.9 1.7-5.7.5-5.3.3-7.7.3-7.7-.5-6-1-11.6-3.6-18.3-1.4-3.5-2-7.3-3.2-10.9-.3-.9-1-2.8-.1-3.9.6-.7 1.6-.8 2.6-.9 4.8-.4 9-.3 10.5-.2 1.5 0 .9 0 4.3.1 3.8.1 5.7.1 7.2.2 5 .3 7.4.4 9.1 1.2 1.8.9 3.3 2.3 5.6 6.3 4.1 6.9 4.1 10 7.8 17.8 2.3 4.9 3.7 7.6 6.6 10.6 2.4 2.4 4.5 3.6 8.7 6.1 3.4 2 5.2 2.6 7.2 2.4.9-.1 2.9-.2 4.1-1.7 1.6-1.9.9-4.6.7-5.7-.4-1.7-1.2-3-1.8-3.7 2.7 1.6 5.2 2 6.6 2.1 2.2.2 4.8.4 6.2-1.4 1.4-1.7.9-4.1.9-4.2-.1-.3-.2-.8-1.1-2.3-.5-.9-1.3-2.1-2.3-3.5.8.1 2 .2 3.4.2 1.1 0 2.1-.1 3.2-.4.3-.1 3.9-1.2 4.8-4.2.8-2.8-1.4-5.5-2.7-7.1-.5-.7-1.7-1.9-4.5-3.7-2.5-1.5-4.2-2.2-9.6-4.2-6.7-2.6-7.8-3-8.7-3.3-.1 0-.4-.1-.8-.3-3.3-1.1-5.7-1.9-8.5-2.4-1.5-.3-3-.7-4.5-1-.2 0-1.5-.3-2.7-1.2-.8-.6-.9-.9-.9-1-.1-.6.6-1.1 2-2.1 1.6-1 2.4-1.6 3.2-1.9 2.5-1.1 4.6-2.7 7-4.1 13.7-8 22.1-16.1 22.1-16.1 7.9-7.6 12.1-15.1 14.8-19.9 6.5-11.7 9.4-22.9 10.7-31.3.2 1.5.8 3.8 2.2 6.3 1 1.6 2 3.4 3.7 4.3 3.6 1.8 8.2-.9 9.2-1.4 1.6-.9 6.1-4 9.4-15.8 3.6-12 2.4-22.5 1.6-28.7zm-119.5-76.9c-5.3-1.9-7.4-2.9-9.5-4.9-3-2.9-4-6.1-5.1-9.4-1.2-3.7-1.1-6.8-.8-13.1 0-.4.1-1.4.6-1.7 1-.5 2.7 1.3 2.9 1.6 1.2 1.3 1.4 2.2 2.7 5.2 1.9 4.2 2.7 4.9 3.5 5.3.2.1 1.5.7 2.9.2 1.1-.4 1.7-1.2 2.5-2.4 1.6-2.3 3.5-4.5 5.1-6.8.1-.2 1.1-1.5 2.9-2.2.5-.2.8-.2 1-.1.7.3.6 1.9.6 3.4-.4 9.1-.3 6.9-.3 7.5-.1 1.5-.2 3 .2 4.9.4 1.7.8 2.2 1.2 2.5 1.2.8 2.9.2 3.5 0 1.5-.5 2.4-1.4 3.7-2.8 1.5-1.5 1.5-1.9 2.6-2.6.7-.5 2.2-1.4 3.3-.8.9.4 1.1 1.5 1.3 1.9.4 1.5 0 3-.5 4.2-1.1 2.6-4.7 8.1-10 15.1-.2-.1-.4-.1-.6-.1-3.7-1.2-7-2.5-13.7-4.9zm-91.2 96.2c-1.7 4.2-2.2 4.8-3.7 8.2-.7 1.5-1.7 3.9-2.9 6.8-.8 1.7-1.6 3-2.3 3.9-2.2 3.3-3.8 4.6-4.7 5.3-1.9 1.3-2.8 1.2-3.2 1.1-.3-.1-1-.3-2-1.6-1.4-1.9-1.7-4-1.8-4.6-.8-6.1-.5-9.2-.5-9.2 1-9.7 1.5-14.5 3.6-22 .3-1.1 1.4-5.2 3.3-10.4 3.5-9.5 6.6-14.9 8.1-17.4 2.1-3.4 4.5-6.7 8.4-9.1 3.5-2.2 5.4-1.9 6.4-1.6 1.6.5 2.6 1.8 2.8 2.2 1.4 1.9 1.3 4.2 1.2 5.5-.5 8.9-1.3 12.4-1.3 12.4-1.8 7.4-3.7 12.8-3.9 13.3-2.7 7.4-3.4 7.2-7.5 17.2zm204.7 11.9c-.7 3-1.8 7-5 9.6-.8.7-2.5 2-4.7 1.9-1.6-.1-2.8-.9-3.3-1.4-1.9-1.4-2.8-3.5-3.5-5.7-1.8-5.7-1.8-9.8-1.8-9.8 0-6.9-.3-13.8 0-20.6.3-5.3.4-13-.5-22.6 0 0-.4-3.2.6-9.9.3-1.8.7-3.5 2.1-4.6 1.7-1.2 3.8-.7 4-.6 1.5.4 2.5 1.5 3.3 2.6 3.3 4.4 4.8 7.6 4.8 7.6 1.9 4.6 3.2 8.6 4 11.6.6 2.2 1.3 4.8 1.8 8.3.5 3 .7 6 .6 10.7 0 11.3-1.4 18.6-2.4 22.9z"
			fill="#393939"/>
	</g>
</svg>